<svg id="Capa_1" enable-background="new 0 0 511.999 511.999" height="512" viewBox="0 0 511.999 511.999" width="512" xmlns="http://www.w3.org/2000/svg">
    <g>
        <path fill="#fff" d="m466.406 154.648c-4.143 0-7.5 3.358-7.5 7.5v128.67c0 13.264-4.334 25.532-11.649 35.478l-98.139-107.306 98.154-107.333c4.858 6.62 8.356 14.198 10.168 22.231.911 4.041 4.919 6.578 8.966 5.667 4.041-.911 6.578-4.925 5.667-8.966-3.685-16.346-12.926-31.186-26.021-41.785-11.57-9.366-25.764-15.065-40.545-16.385-1.553-40.194-34.719-72.419-75.286-72.419h-216.77c-41.553 0-75.359 33.806-75.359 75.36v361.279c0 41.554 33.806 75.36 75.359 75.36h216.77c41.554 0 75.36-33.806 75.36-75.36v-71.115c38.241-3.404 68.325-35.599 68.325-74.705v-128.67c0-4.143-3.357-7.501-7.5-7.501zm-110.66 196.19c-1.989 0-3.896.79-5.303 2.196l-40.593 40.584c-3.265 3.268-7.608 5.068-12.23 5.068-4.624 0-8.971-1.801-12.24-5.071l-40.58-40.58c-1.407-1.407-3.314-2.197-5.304-2.197h-43.13c-14.427 0-27.679-5.117-38.042-13.628l97.96-107.111 12.402 13.561c7.413 8.098 17.958 12.742 28.936 12.742h.011c10.974-.003 21.515-4.648 28.917-12.743l12.404-13.557 97.961 107.111c-10.363 8.509-23.614 13.625-38.039 13.625zm-207.766-239.165 98.142 107.313-98.139 107.306c-7.314-9.945-11.647-22.211-11.647-35.474v-143.67c0-13.263 4.332-25.529 11.644-35.475zm288.954-10.94-103.513 113.194-17.939 19.607c-4.637 5.071-10.978 7.865-17.853 7.867-.003 0-.004 0-.007 0-6.879 0-13.226-2.795-17.87-7.868l-121.431-132.781c10.364-8.514 23.618-13.633 38.046-13.633h202.51c13.904 0 26.954 4.614 37.738 13.344.108.088.211.181.319.27zm-106.713 396.266h-216.77c-33.282 0-60.359-27.077-60.359-60.36v-361.279c0-33.283 27.077-60.36 60.359-60.36h216.77c32.196 0 58.581 25.337 60.271 57.119h-15.044c-1.668-23.504-21.311-42.12-45.232-42.12h-216.76c-25.012 0-45.36 20.348-45.36 45.36v313.21c0 4.142 3.357 7.5 7.5 7.5s7.5-3.358 7.5-7.5v-313.211c0-16.74 13.619-30.36 30.36-30.36h216.76c15.647 0 28.563 11.898 30.185 27.12h-164.035c-41.372 0-75.03 33.658-75.03 75.03v143.67c0 41.366 33.658 75.02 75.03 75.02h40.023l38.383 38.383c6.104 6.103 14.217 9.464 22.848 9.464 8.632 0 16.744-3.362 22.839-9.463l38.394-38.384h1.724v70.8c0 16.741-13.619 30.36-30.36 30.36h-216.76c-16.741 0-30.36-13.619-30.36-30.36v-18.07c0-4.142-3.357-7.5-7.5-7.5s-7.5 3.358-7.5 7.5v18.07c0 25.012 20.349 45.36 45.36 45.36h216.76c25.012 0 45.36-20.348 45.36-45.36v-70.8h15.005v70.8c-.001 33.283-27.078 60.361-60.361 60.361z"/>
    </g>
</svg>